<svg xmlns="http://www.w3.org/2000/svg" xmlns:xlink="http://www.w3.org/1999/xlink" viewBox="0 0 100 100" version="1.1" x="0px" y="0px"><title>Artboard</title><desc>Created with Sketch.</desc><g stroke="none" stroke-width="1" fill="none" fill-rule="evenodd"><path d="M18,60 C34.5685425,60 48,73.4314575 48,90 L48,95 L43,95 C26.4314575,95 13,81.5685425 13,65 L13,60 L18,60 Z M87,60 L87,65 C87,81.5685425 73.5685425,95 57,95 L57,95 L52,95 L52,90 C52,73.4314575 65.4314575,60 82,60 L82,60 L87,60 Z M48.6235935,5 C54.146441,5 58.6235935,9.4771525 58.6235935,15 L58.6233903,18.678 L61.810127,16.839746 C66.5930533,14.0783222 72.7089573,15.7170738 75.4703811,20.5 C78.2318048,25.2829262 76.5930533,31.3988303 71.810127,34.160254 L68.6233903,36 L71.810127,37.839746 C76.5930533,40.6011697 78.2318048,46.7170738 75.4703811,51.5 C72.7089573,56.2829262 66.5930533,57.9216778 61.810127,55.160254 L58.6233903,53.321 L58.6235935,57 C58.6235935,62.5228475 54.146441,67 48.6235935,67 C43.100746,67 38.6235935,62.5228475 38.6235935,57 L38.6233903,53.32 L35.4370601,55.160254 C30.6541338,57.9216778 24.5382298,56.2829262 21.776806,51.5 C19.0153823,46.7170738 20.6541338,40.6011697 25.4370601,37.839746 L28.6223903,35.999 L25.4370601,34.160254 C20.6541338,31.3988303 19.0153823,25.2829262 21.776806,20.5 C24.5382298,15.7170738 30.6541338,14.0783222 35.4370601,16.839746 L38.6233903,18.679 L38.6235935,15 C38.6235935,9.4771525 43.100746,5 48.6235935,5 Z M48.62,26 C43.0971525,26 38.62,30.4771525 38.62,36 C38.62,41.5228475 43.0971525,46 48.62,46 C54.1428475,46 58.62,41.5228475 58.62,36 C58.62,30.4771525 54.1428475,26 48.62,26 Z" fill="#FFA6F2"/></g></svg>