<svg xmlns="http://www.w3.org/2000/svg" data-name="Layer 1" viewBox="0 0 100 100" x="0px" y="0px"><title>setng cog</title><path d="M94.84,38.88H85.49A3.58,3.58,0,0,1,83,32.77l6.62-6.62a5.16,5.16,0,0,0,0-7.28l-8.44-8.44a5.26,5.26,0,0,0-7.28,0L67.23,17a3.58,3.58,0,0,1-6.11-2.54V5.16A5.16,5.16,0,0,0,56,0H44a5.16,5.16,0,0,0-5.16,5.16v9.35A3.58,3.58,0,0,1,32.77,17l-6.62-6.62a5.26,5.26,0,0,0-7.28,0l-8.44,8.44a5.16,5.16,0,0,0,0,7.28L17,32.77a3.58,3.58,0,0,1-2.54,6.11H5.16A5.16,5.16,0,0,0,0,44V56a5.16,5.16,0,0,0,5.16,5.16h9.35a3.5,3.5,0,0,1,3.32,2.21A3.44,3.44,0,0,1,17,67.23l-6.62,6.62a5.16,5.16,0,0,0,0,7.28l8.44,8.44a5.26,5.26,0,0,0,7.28,0L32.77,83a3.58,3.58,0,0,1,6.11,2.54v9.35A5.16,5.16,0,0,0,44,100H56a5.16,5.16,0,0,0,5.16-5.16V85.49a3.5,3.5,0,0,1,2.21-3.32,3.44,3.44,0,0,1,3.91.78l6.62,6.62a5.26,5.26,0,0,0,7.28,0l8.44-8.44a5.16,5.16,0,0,0,0-7.28L83,67.23a3.58,3.58,0,0,1,2.54-6.11h9.35A5.16,5.16,0,0,0,100,56V44A5.15,5.15,0,0,0,94.84,38.88Zm1.45,17.07a1.44,1.44,0,0,1-1.45,1.45H85.49a7.3,7.3,0,0,0-5.16,12.46L87,76.47a1.45,1.45,0,0,1,0,2.05l-8.44,8.42a1.45,1.45,0,0,1-2.05,0l-6.62-6.62a7.3,7.3,0,0,0-12.46,5.16v9.35a1.44,1.44,0,0,1-1.45,1.45H44a1.44,1.44,0,0,1-1.45-1.45V85.47a7.16,7.16,0,0,0-4.51-6.74,7.23,7.23,0,0,0-7.95,1.58l-6.62,6.62a1.45,1.45,0,0,1-2.05,0L13.06,78.5a1.45,1.45,0,0,1,0-2.05l6.62-6.62a7.28,7.28,0,0,0-5.16-12.44H5.17a1.44,1.44,0,0,1-1.45-1.45V44a1.44,1.44,0,0,1,1.45-1.45h9.35a7.3,7.3,0,0,0,5.16-12.46l-6.62-6.62a1.45,1.45,0,0,1,0-2.05L21.5,13a1.45,1.45,0,0,1,2.05,0l6.62,6.62a7.3,7.3,0,0,0,12.46-5.16V5.12a1.44,1.44,0,0,1,1.45-1.45H56a1.44,1.44,0,0,1,1.45,1.45v9.35a7.3,7.3,0,0,0,12.46,5.16L76.53,13a1.45,1.45,0,0,1,2.05,0L87,21.44a1.45,1.45,0,0,1,0,2.05l-6.62,6.62a7.3,7.3,0,0,0,5.16,12.46H94.9A1.44,1.44,0,0,1,96.35,44V55.95H96.29Z"/><path d="M50,33.33A16.66,16.66,0,1,0,66.67,50,16.67,16.67,0,0,0,50,33.33ZM50,63A13,13,0,1,1,63,50,13,13,0,0,1,50,63Z"/></svg>
